Coordinates
version=1
nRows=21
nColumns=22
inDegrees=yes

Units are S.I. units (second, meters, Newtons, ...)
If the header above contains a line with 'inDegrees', this indicates whether rotational values are in degrees (yes) or radians (no).

endheader
time	pelvis_tilt	pelvis_list	pelvis_rotation	pelvis_tx	pelvis_ty	pelvis_tz	hip_flexion_r	hip_adduction_r	hip_rotation_r	knee_angle_r	ankle_angle_r	subtalar_angle_r	hip_flexion_l	hip_adduction_l	hip_rotation_l	knee_angle_l	ankle_angle_l	subtalar_angle_l	lumbar_extension	lumbar_bending	lumbar_rotation
      1.65000000	     -3.70048097	      0.67295924	    143.62994645	     -0.17287307	      0.92197645	      0.80582157	      4.39250176	      9.09212486	     -5.51825835	    -21.26731714	      9.89590043	     -7.31641847	     15.17362804	     -9.58656631	     -2.45457191	    -62.68018103	     -0.24513040	      8.13019415	     -9.04350275	     -0.75159756	      2.27072190
      1.66000000	     -3.69821126	      0.72230580	    142.53408244	     -0.17730001	      0.92238954	      0.79935714	      3.51276371	      9.29674136	     -4.43852796	    -20.75743233	      9.95765234	     -7.24701315	     15.94168018	     -9.88740972	     -2.49466513	    -61.13976410	      0.97792191	      7.07491938	     -9.00995464	     -0.81644662	      2.71509622
      1.67000000	     -3.68667627	      0.77772585	    141.40378580	     -0.18165422	      0.92271347	      0.79292341	      2.65491337	      9.47829060	     -3.33713018	    -20.29130056	     10.01690567	     -7.16822366	     16.61461410	    -10.18750291	     -2.60485232	    -59.36607628	      2.00644013	      5.91516538	     -8.98439609	     -0.86475369	      3.20807604
      1.68000000	     -3.66145359	      0.83632293	    140.23602684	     -0.18595733	      0.92293912	      0.78647283	      1.81116923	      9.63921849	     -2.21027504	    -19.84982939	     10.06491120	     -7.08404636	     17.18872477	    -10.49886598	     -2.81920371	    -57.36225952	      2.82530436	      4.76351457	     -8.95332422	     -0.90123733	      3.72219430
      1.69000000	     -3.62081458	      0.90192670	    139.03545271	     -0.19022122	      0.92306333	      0.78004514	      0.98403597	      9.78344463	     -1.04814689	    -19.43940072	     10.11587137	     -6.99565423	     17.66677316	    -10.80605336	     -3.11076216	    -55.14271759	      3.42408250	      3.67991629	     -8.92439846	     -0.91184495	      4.28780731
      1.70000000	     -3.57646508	      0.96742070	    137.82280707	     -0.19451796	      0.92308174	      0.77363621	      0.16761603	      9.88849769	      0.06878518	    -19.05940811	     10.17682912	     -6.89916666	     18.03989569	    -11.08728829	     -3.47928076	    -52.71462210	      3.92835074	      2.62935924	     -8.89516276	     -0.91104387	      4.85137248
      1.71000000	     -3.50881475	      1.02932987	    136.59787316	     -0.19881949	      0.92296502	      0.76726449	     -0.61443863	      9.97307601	      1.18945723	    -18.71817994	     10.26459419	     -6.80185884	     18.34291997	    -11.34324280	     -3.89898557	    -50.10300468	      4.26147830	      1.75577355	     -8.85264892	     -0.88585473	      5.43854083
      1.72000000	     -3.42017750	      1.07863434	    135.37085921	     -0.20316311	      0.92270537	      0.76095256	     -1.35669630	     10.02653911	      2.28387718	    -18.41384010	     10.38027618	     -6.70542746	     18.58667171	    -11.55474316	     -4.35499439	    -47.32599484	      4.48090909	      1.05791427	     -8.79243016	     -0.83748795	      6.02434573
      1.73000000	     -3.30654942	      1.10772934	    134.15864783	     -0.20757221	      0.92228941	      0.75470492	     -2.04639945	     10.04992114	      3.33068440	    -18.15138071	     10.52816057	     -6.61537648	     18.79144799	    -11.71117586	     -4.81837471	    -44.40115674	      4.58814549	      0.58035926	     -8.70429465	     -0.76738671	      6.58885707
      1.74000000	     -3.15372451	      1.11064432	    132.96583621	     -0.21203721	      0.92168929	      0.74855727	     -2.65499708	     10.05624613	      4.33419481	    -17.95060600	     10.72739804	     -6.53797365	     18.99085623	    -11.81280330	     -5.25345301	    -41.36032625	      4.58589106	      0.37647030	     -8.57615175	     -0.66281969	      7.14189618
      1.75000000	     -2.93306292	      1.04216413	    131.80269113	     -0.21657846	      0.92083250	      0.74248315	     -3.12434736	     10.04102580	      5.25212931	    -17.81258264	     10.96318329	     -6.47894639	     19.25617863	    -11.86394174	     -5.67781118	    -38.23771520	      4.49879318	      0.41825798	     -8.34200621	     -0.53423295	      7.66490643
      1.76000000	     -2.77690619	      1.03857549	    130.69419607	     -0.22122712	      0.92002238	      0.73649467	     -3.68100482	     10.00450520	      6.12486944	    -17.69936373	     11.24176949	     -6.41560936	     19.36053726	    -11.83623435	     -6.02013905	    -34.99730426	      4.39675866	      0.78594225	     -8.23310972	     -0.38279892	      8.10415737
      1.77000000	     -2.56178439	      0.96494515	    129.63965983	     -0.22597315	      0.91897513	      0.73057709	     -4.10784778	      9.95181231	      6.88494274	    -17.63800713	     11.54806058	     -6.36755116	     19.54154193	    -11.76013494	     -6.34015263	    -31.72004723	      4.27445673	      1.44420855	     -8.02525172	     -0.21283653	      8.50207601
      1.78000000	     -2.32203375	      0.83476124	    128.61380053	     -0.23072492	      0.91773603	      0.72474082	     -4.40002054	      9.87841520	      7.56948732	    -17.70752380	     11.91364876	     -6.32918823	     19.75877202	    -11.63438727	     -6.67962211	    -28.41733318	      4.14540171	      2.19058960	     -7.77003566	     -0.04810607	      8.87196042
      1.79000000	     -2.12414827	      0.76017927	    127.69403307	     -0.23566411	      0.91652014	      0.71893904	     -4.78963446	      9.80249110	      8.16821104	    -17.72996839	     12.24976546	     -6.29071194	     19.87137891	    -11.45501485	     -6.96322167	    -25.08633903	      4.07788637	      3.46459176	     -7.60176661	      0.14738233	      9.08590496
      1.80000000	     -1.93184599	      0.64254160	    126.80634264	     -0.24066017	      0.91516705	      0.71314791	     -5.10003472	      9.69102874	      8.68466744	    -17.84277233	     12.63570359	     -6.24847545	     19.99588000	    -11.22663429	     -7.36586200	    -21.79591034	      4.00042163	      4.75858009	     -7.40899378	      0.31395756	      9.27511532
      1.81000000	     -1.76932320	      0.52485867	    125.97218801	     -0.24579209	      0.91375655	      0.70735502	     -5.40974500	      9.54973949	      9.11719553	    -17.99578264	     13.03800168	     -6.19531787	     20.09300329	    -10.94729539	     -7.88351730	    -18.59529887	      3.90986362	      6.17856705	     -7.24158543	      0.46747579	      9.39115937
      1.82000000	     -1.63892878	      0.41514090	    125.18844490	     -0.25106523	      0.91228896	      0.70154573	     -5.72807535	      9.38159430	      9.47137532	    -18.18889123	     13.45316458	     -6.12795706	     20.17799658	    -10.62105198	     -8.53364379	    -15.56356447	      3.79251712	      7.71684467	     -7.10767245	      0.60767806	      9.42953919
      1.83000000	     -1.51817308	      0.31608159	    124.46217885	     -0.25649120	      0.91075144	      0.69571373	     -6.05920330	      9.20731699	      9.75633407	    -18.38936037	     13.86715710	     -6.04905442	     20.29227807	    -10.26582495	     -9.27369655	    -12.78877049	      3.63564785	      9.31484568	     -6.99305524	      0.75465025	      9.39612985
      1.84000000	     -1.40622704	      0.24081573	    123.76353828	     -0.26199608	      0.90914554	      0.68983407	     -6.39348992	      9.03522103	      9.98680595	    -18.63889515	     14.27831822	     -5.96277230	     20.44630676	     -9.90996644	    -10.08278896	    -10.37040778	      3.47036304	     10.93170383	     -6.91483127	      0.91030219	      9.31824545
      1.85000000	     -1.28922792	      0.18914512	    123.07733747	     -0.26749536	      0.90747309	      0.68387027	     -6.72553058	      8.88465848	     10.22970592	    -18.93543457	     14.66585010	     -5.87474924	     20.66150983	     -9.58465439	    -10.88333085	     -8.38465164	      3.30354922	     12.44448066	     -6.86814569	      1.07702931	      9.19724766
